# xmcd
#
# Track frame offsets:
#	150
#	17642
#	34545
#	49300
#	63285
#	78195
#	91485
#	103395
#	119337
#	136010
#	150797
#	170420
#	185037
#	201497
#	218505
#
# Disc length: 3108 seconds
#
# Revision: 0
# Processed by: cddbd v1.5.1PL2 Copyright (c) Steve Scherf et al.
# Submitted via: audiograbber 1.83.01
#
DISCID=c30c220f
DTITLE=Various Artist - SC8280
DYEAR=1900
DGENRE=Country
TTITLE0=Williams, Hank Jr. - Houston, We Have A Problem
TTITLE1=Loveless, Patty - Thousand Times A Day, A
TTITLE2=Peters, Gretchen - When You Are Old
TTITLE3=Morgan, Lorrie and John Randall - By My Side
TTITLE4=Singletary, Deryle - Workin' It Out
TTITLE5=Mellons, Ken - Stranger In Your Eyes
TTITLE6=Lynne, Shelby - Another Chance At Love
TTITLE7=Diamond Rio - That's What I Get For Loving You
TTITLE8=Adkins, Trace - There's A Girl In Texas
TTITLE9=Ball, David - Circle Of Friends
TTITLE10=Keithe, Toby - Every Night
TTITLE11=Ricochet - Daddy's Money
TTITLE12=Gill, Vince - High Lonesome Sound
TTITLE13=Chesnutt, Mark - Wrong Place, Wrong Time
TTITLE14=Stuart, Marty and Travis Tritt - Honky Tonkin's What I Do Best
EXTD=
EXTT0=
EXTT1=
EXTT2=
EXTT3=
EXTT4=
EXTT5=
EXTT6=
EXTT7=
EXTT8=
EXTT9=
EXTT10=
EXTT11=
EXTT12=
EXTT13=
EXTT14=
PLAYORDER=
